<svg xmlns="http://www.w3.org/2000/svg" width="430" height="430" style="width:100%;height:100%;transform:translate3d(0,0,0);content-visibility:visible" viewBox="0 0 430 430"><defs><clipPath id="a"><path d="M0 0h430v430H0z"/></clipPath><clipPath id="c"><path d="M0 0h430v430H0z"/></clipPath><clipPath id="b"><path d="M0 0h430v430H0z"/></clipPath></defs><g clip-path="url(#a)"><g clip-path="url(#b)" style="display:none"><path class="primary" style="display:none"/><g style="mix-blend-mode:multiply;display:none"><path class="primary" style="mix-blend-mode:multiply"/></g><g style="display:none"><path class="secondary"/><path class="secondary" style="mix-blend-mode:multiply"/></g><path class="secondary" style="display:none"/><g style="display:none"><path class="secondary"/><path class="secondary" style="mix-blend-mode:multiply"/></g></g><g clip-path="url(#c)" style="display:block"><path fill="#4AB3FC" d="M13.099-117.65c48.6 0 90.4 29.5 108.3 71.6 31.5 12.4 53.9 43 53.7 78.9 0 46.8-37.9 84.8-84.8 84.8h-196.9c-37.8 0-68.5-30.7-68.5-68.5 0-26.3 14.9-49.1 36.7-60.6-.6-2.6-.9-5.2-.9-7.9 0-20.2 16.4-36.6 36.6-36.6 3.9 0 7.7.6 11.3 1.8 19.7-37.7 59.1-63.5 104.5-63.5" class="primary" style="display:block" transform="translate(216.4 214.95)"/><path class="primary" style="display:none"/><path class="primary" style="display:none"/><path class="primary" style="display:none"/><path class="primary" style="display:none"/><path class="primary" style="display:none"/><g opacity=".5" style="mix-blend-mode:multiply;display:block"><path fill="#4AB3FC" d="M229.131 97.25c19.557 0 38.008 4.81 54.227 13.314-17.608 1.686-49.497 24.875-59.45 50.516-33.865-6.502-51.997 17.17-47.218 43.107C117 231.5 130.499 328.251 207.64 332.149c-52.048 0-85.483-.242-97.645-.242-37.622 0-68.176-30.615-68.176-68.312 0-26.228 14.829-48.966 36.526-60.435a34.8 34.8 0 0 1-.895-7.878c0-20.145 16.322-36.5 36.427-36.5 3.882 0 7.664.598 11.247 1.795 19.607-37.597 58.821-63.327 104.007-63.327" class="primary" opacity="1"/></g><g fill="#393346" style="display:block"><path d="m99.552 242.048 66.169 59.52c1.932 1.738 5.009.365 5.006-2.233l-.032-32.269a4 4 0 0 0-1.295-2.943l-26.484-24.302 26.484-24.297a4 4 0 0 0 1.296-2.944l.034-32.267c.003-2.598-3.074-3.97-5.006-2.233l-66.172 59.507a3 3 0 0 0 0 4.461" class="secondary"/><path fill-opacity=".5" d="m-35.092 2.224 66.169 59.52c1.932 1.738 5.009.365 5.006-2.233l-.032-32.269a4 4 0 0 0-1.295-2.943L8.272-.003 34.756-24.3a4 4 0 0 0 1.296-2.944l.034-32.267c.003-2.598-3.074-3.97-5.006-2.233L-35.092-2.237a3 3 0 0 0 0 4.461" class="secondary" style="mix-blend-mode:multiply" transform="translate(134.644 239.824)"/></g><path fill="#393346" d="M35.092-2.237-31.08-61.744c-1.932-1.737-5.009-.365-5.006 2.233l.034 32.267a4 4 0 0 0 1.296 2.944L-8.272-.003l-26.484 24.302a4 4 0 0 0-1.295 2.943l-.032 32.269c-.003 2.598 3.074 3.971 5.006 2.233l66.169-59.52a3 3 0 0 0 0-4.461" class="secondary" style="display:block" transform="translate(305.224 239.824)"/><g fill="#393346" style="display:block"><path d="m216.376 303.657 42.004-126.46a3 3 0 0 0-2.847-3.945h-28.245a4 4 0 0 0-3.796 2.739l-42.004 126.46a3 3 0 0 0 2.847 3.945h28.245a4 4 0 0 0 3.796-2.739" class="secondary"/><path d="M28.787-63.793-13.027 62.596c-.642 1.941-1.321 3.938-1.337 3.933 0 0 7.735.067 14.965.067 1.576 0 3.211-.915 3.834-2.769 10.75-32.002 27.837-83.844 42.039-126.602.507-1.526-.603-3.776-2.993-3.784-8.547-.03-13.81.021-13.81.021.013.004-.343 1.11-.884 2.745" class="secondary" opacity=".5" style="mix-blend-mode:multiply" transform="rotate(180 113.967 119.912)"/></g></g></g></svg>