<svg xmlns="http://www.w3.org/2000/svg" width="430" height="430" style="width:100%;height:100%;transform:translate3d(0,0,0);content-visibility:visible" viewBox="0 0 430 430"><defs><clipPath id="c"><path d="M0 0h430v430H0z"/></clipPath><clipPath id="e"><path d="M0 0h430v430H0z"/></clipPath><clipPath id="d"><path d="M0 0h430v430H0z"/></clipPath><path id="a" style="display:none"/><path id="b" style="display:none"/><mask id="g" mask-type="alpha"><use xmlns:ns1="http://www.w3.org/1999/xlink" ns1:href="#a"/></mask><mask id="f" mask-type="alpha"><use xmlns:ns2="http://www.w3.org/1999/xlink" ns2:href="#b"/></mask></defs><g clip-path="url(#c)"><g clip-path="url(#d)" style="display:block"><path fill="#4AB3FC" d="M-79.071-122.195 16.94 0l-96.011 122.196a3 3 0 0 0 .506 4.212l34.598 27.184a3 3 0 0 0 4.212-.505L79.071 1.853a3 3 0 0 0 0-3.706L-39.755-153.087a3 3 0 0 0-4.212-.505l-34.598 27.184a3 3 0 0 0-.506 4.213" class="primary" style="display:block" transform="translate(331.267 215)"/><g opacity=".5" style="mix-blend-mode:multiply;display:block"><path fill="#4AB3FC" d="M252.196 92.805a3 3 0 0 1 .505-4.213l18.197-14.297L381.452 215 270.898 355.705l-18.197-14.297a3 3 0 0 1-.505-4.212L348.206 215z" class="primary" opacity="1"/></g><path fill="#4AB3FC" d="M79.071-122.195-16.94 0l96.011 122.196a3 3 0 0 1-.506 4.212l-34.598 27.184a3 3 0 0 1-4.212-.505L-79.071 1.853a3 3 0 0 1 0-3.706L39.755-153.087a3 3 0 0 1 4.212-.505l34.598 27.184a3 3 0 0 1 .506 4.213" class="primary" style="display:block" transform="translate(98.734 214.999)"/><g opacity=".5" style="mix-blend-mode:multiply;display:block"><path fill="#4AB3FC" d="m48.549 214.999 110.554 140.705-16.402 12.887a3 3 0 0 1-4.212-.505L19.663 216.852a3 3 0 0 1 0-3.706L138.489 61.912a3 3 0 0 1 4.212-.505l16.402 12.887z" class="primary" opacity="1"/></g><path fill="#4AB3FC" d="M0-22.5c12.418 0 22.5 10.082 22.5 22.5S12.418 22.5 0 22.5-22.5 12.418-22.5 0-12.418-22.5 0-22.5" class="primary" style="display:block" transform="translate(150 215)"/><g opacity=".5" style="mix-blend-mode:multiply;display:block"><path fill="#4AB3FC" d="M160 227.5c3.635 0 7.069-.862 10.108-2.393-3.702 7.35-11.316 12.393-20.108 12.393-12.426 0-22.5-10.074-22.5-22.5 0-8.792 5.043-16.406 12.393-20.108A22.4 22.4 0 0 0 137.5 205c0 12.426 10.074 22.5 22.5 22.5" class="primary" opacity="1"/></g><path fill="#4AB3FC" d="M0-22.5c12.418 0 22.5 10.082 22.5 22.5S12.418 22.5 0 22.5-22.5 12.418-22.5 0-12.418-22.5 0-22.5" class="primary" style="display:block" transform="translate(215 215)"/><g opacity=".5" style="mix-blend-mode:multiply;display:block"><path fill="#4AB3FC" d="M225 227.5c3.635 0 7.069-.862 10.108-2.393-3.702 7.35-11.316 12.393-20.108 12.393-12.426 0-22.5-10.074-22.5-22.5 0-8.792 5.043-16.406 12.393-20.108A22.4 22.4 0 0 0 202.5 205c0 12.426 10.074 22.5 22.5 22.5" class="primary" opacity="1"/></g><path fill="#4AB3FC" d="M0-22.5c12.418 0 22.5 10.082 22.5 22.5S12.418 22.5 0 22.5-22.5 12.418-22.5 0-12.418-22.5 0-22.5" class="primary" style="display:block" transform="translate(280 215)"/><g opacity=".5" style="mix-blend-mode:multiply;display:block"><path fill="#4AB3FC" d="M290 227.5c3.635 0 7.069-.862 10.108-2.393-3.702 7.35-11.316 12.393-20.108 12.393-12.426 0-22.5-10.074-22.5-22.5 0-8.792 5.043-16.406 12.393-20.108A22.4 22.4 0 0 0 267.5 205c0 12.426 10.074 22.5 22.5 22.5" class="primary" opacity="1"/></g></g><g clip-path="url(#e)" style="display:none"><path class="primary" style="display:none"/><g mask="url(#f)" style="mix-blend-mode:multiply;display:none"><path class="primary"/></g><path class="primary" style="display:none"/><g mask="url(#g)" style="mix-blend-mode:multiply;display:none"><path class="primary"/></g><path class="primary" style="display:none"/><path class="primary" style="mix-blend-mode:multiply;display:none"/><path class="primary" style="display:none"/><path class="primary" style="mix-blend-mode:multiply;display:none"/><path class="primary" style="display:none"/><path class="primary" style="mix-blend-mode:multiply;display:none"/></g></g></svg>