<svg xmlns="http://www.w3.org/2000/svg" width="430" height="430" style="width:100%;height:100%;transform:translate3d(0,0,0);content-visibility:visible" viewBox="0 0 430 430"><defs><clipPath id="d"><path d="M0 0h430v430H0z"/></clipPath><clipPath id="h"><path d="M0 0h430v430H0z"/></clipPath><clipPath id="i"><path d="M0 0h430v430H0z"/></clipPath><clipPath id="e"><path d="M0 0h430v430H0z"/></clipPath><clipPath id="f"><path d="M0 0h430v430H0z"/></clipPath><mask id="k" mask-type="alpha"><use xmlns:ns1="http://www.w3.org/1999/xlink" ns1:href="#a"/></mask><mask id="j" mask-type="alpha"><use xmlns:ns2="http://www.w3.org/1999/xlink" ns2:href="#b"/></mask><mask id="g" mask-type="alpha"><use xmlns:ns3="http://www.w3.org/1999/xlink" ns3:href="#c"/></mask><path id="a" style="display:none"/><path id="c" fill="#EBE6EF" d="M85.903-106.746S26.47 38.373-.506 106.746c-33.524.127-85.397 0-85.397 0L.506-106.746" style="display:block" transform="translate(258.03 161.627)"/><g id="b" style="display:none"><path class="secondary"/><path class="tertiary"/></g></defs><g clip-path="url(#d)"><g clip-path="url(#e)" style="display:block"><g clip-path="url(#f)" style="display:block"><path fill="#EBE6EE" d="M85.903-106.746S26.47 38.373-.506 106.746c-33.524.127-85.397 0-85.397 0L.506-106.746" class="tertiary" style="display:block" transform="translate(258.03 161.627)"/><path fill="#F14B00" d="M-29.151 119.962C-3.493 55.782 57.128-92.837 57.128-92.837l-43.911-.119S-28.743 9.782-55.628 78.352c1.885 9.43 14.26 38.555 26.477 41.61" class="quaternary" style="display:block" transform="translate(286.742 147.718)"/><g mask="url(#g)" opacity=".5" style="mix-blend-mode:multiply;display:block"><path fill="#EBE6EE" d="M100.067 54.881S159.5 202 186.476 268.373c24.524.627 61.524.127 85.397 0C241 192.5 185.464 54.881 185.464 54.881" class="tertiary" opacity="1"/></g><path fill="#EBE6EE" d="M-85.903-106.746S-26.47 40.373.506 106.746c24.524.627 61.524.127 85.397 0C55.03 30.873-.506-106.746-.506-106.746" class="tertiary" style="display:block" transform="translate(171.97 161.627)"/><path fill="#F14B00" d="M28.821 120.556c9.157.226 28.657.351 43.321.278-28.289-70.552-86.314-213.79-86.314-213.79s-23.225.119-42.845.119c5.87 12.119 69.87 172.869 85.838 213.393" class="quaternary" style="display:block" transform="translate(143.147 147.718)"/></g><path fill="#FFC638" d="M-78.005 0c0-43.081 34.924-78.005 78.005-78.005S78.005-43.081 78.005 0 43.081 78.005 0 78.005-78.005 43.081-78.005 0" class="primary" style="display:block" transform="translate(215 297.114)"/><g opacity=".5" style="mix-blend-mode:multiply;display:block"><path fill="#FFC638" d="m-42.976-54.404-.719-.814a77.7 77.7 0 0 0-7.064 32.43c0 43.081 34.924 78.006 78.005 78.006a78 78 0 0 0 23.513-3.614l-1.516-1.716z" class="primary" opacity="1" style="mix-blend-mode:multiply" transform="translate(187.754 319.902)"/></g><g opacity=".5" style="mix-blend-mode:multiply;display:block"><path fill="#FFC638" d="m42.424 53.348 1.191 1.347a77.7 77.7 0 0 0 6.592-31.385c0-43.081-34.924-78.005-78.005-78.005a78 78 0 0 0-22.409 3.283l.413.467z" class="primary" opacity="1" style="mix-blend-mode:multiply" transform="translate(242.798 273.804)"/></g><g fill="none" stroke="#B16836" stroke-linecap="round" stroke-linejoin="round" stroke-width="7" style="display:block"><path stroke-dasharray="0.1 28" d="M161.719 297.114c0-29.427 23.854-53.281 53.281-53.281s53.281 23.854 53.281 53.281-23.854 53.281-53.281 53.281-53.281-23.854-53.281-53.281" class="secondary"/><path d="m203.406 288.662 14.46-14.46v45.824" class="secondary"/></g></g><g clip-path="url(#h)" style="display:none"><g clip-path="url(#i)" style="display:none"><g style="display:none"><path class="tertiary"/><path class="quaternary"/></g><g mask="url(#j)" style="mix-blend-mode:multiply;display:none"><path class="tertiary"/></g><path class="tertiary" style="display:none"/><path class="quaternary" style="display:none"/></g><path class="primary" style="display:none"/><g mask="url(#k)" style="mix-blend-mode:multiply;display:none"><path class="primary" style="mix-blend-mode:multiply"/><path class="primary" style="mix-blend-mode:multiply"/></g><g fill="none" style="display:none"><path class="secondary"/><path class="secondary"/></g></g></g></svg>